<svg width="139" height="117" viewBox="0 0 139 117" fill="none" xmlns="http://www.w3.org/2000/svg">
<path d="M48.176 73V50.28H53.424V68.392H64.432V73H48.176ZM71.4453 50.312H76.2773L78.6453 57.576L81.0133 50.312H85.8773L82.0053 60.872L84.3093 66.92L90.0053 50.28H95.7333L86.8693 73H82.3253L78.6453 64.104L74.9973 73H70.4213L61.5892 50.28H67.2853L73.0133 66.92L75.2533 60.872L71.4453 50.312Z" fill="#5100E6"/>
<path d="M46.176 71V48.28H51.424V66.392H62.432V71H46.176ZM69.4453 48.312H74.2773L76.6453 55.576L79.0133 48.312H83.8773L80.0053 58.872L82.3093 64.92L88.0053 48.28H93.7333L84.8693 71H80.3253L76.6453 62.104L72.9973 71H68.4213L59.5892 48.28H65.2853L71.0133 64.92L73.2533 58.872L69.4453 48.312Z" fill="#E65100"/>
</svg>
